<svg width="121" height="104" viewBox="0 0 121 104" fill="none" xmlns="http://www.w3.org/2000/svg">
<path d="M91.2438 31.7047C89.0128 30.3882 86.1128 30.3882 83.6588 31.7047L66.2576 41.7975L54.434 48.3799L37.0329 58.4725C34.802 59.7891 31.9018 59.7891 29.4479 58.4725L15.6163 50.5739C13.3854 49.2574 11.8238 46.8438 11.8238 44.211V28.6329C11.8238 26 13.1623 23.5865 15.6163 22.2701L29.2248 14.5907C31.4556 13.2743 34.3558 13.2743 36.8098 14.5907L50.4184 22.2701C52.649 23.5865 54.211 26 54.211 28.6329V38.7256L66.0346 31.9241V21.8312C66.0346 19.1983 64.6961 16.7848 62.2421 15.4684L37.0329 0.987341C34.802 -0.329114 31.9018 -0.329114 29.4479 0.987341L3.79253 15.4684C1.33854 16.7848 0 19.1983 0 21.8312V51.0126C0 53.6454 1.33854 56.059 3.79253 57.3755L29.4479 71.8566C31.6787 73.1731 34.5789 73.1731 37.0329 71.8566L54.434 61.9831L66.2576 55.1815L83.6588 45.3081C85.8898 43.9915 88.7898 43.9915 91.2438 45.3081L104.852 52.9875C107.083 54.3037 108.645 56.7172 108.645 59.3504V74.9284C108.645 77.5612 107.306 79.9747 104.852 81.2913L91.2438 89.1899C89.0128 90.5065 86.1128 90.5065 83.6588 89.1899L70.0502 81.5105C67.8192 80.1943 66.2576 77.7807 66.2576 75.1476V65.055L54.434 71.8566V81.9496C54.434 84.5823 55.7725 86.9959 58.2265 88.3124L83.8818 102.793C86.1128 104.11 89.0128 104.11 91.4668 102.793L117.122 88.3124C119.353 86.9959 120.915 84.5823 120.915 81.9496V52.7679C120.915 50.1352 119.576 47.7216 117.122 46.4051L91.2438 31.7047Z" fill="#5FC92E"/>
</svg>
